<?xml version="1.0" standalone="no"?>
<!DOCTYPE svg PUBLIC "-//W3C//DTD SVG 20010904//EN"
 "http://www.w3.org/TR/2001/REC-SVG-20010904/DTD/svg10.dtd">
<svg version="1.0" xmlns="http://www.w3.org/2000/svg"
 width="640.000000pt" height="720.000000pt" viewBox="0 0 640.000000 720.000000"
 preserveAspectRatio="xMidYMid meet">
<metadata>
Created by potrace 1.15, written by Peter Selinger 2001-2017
</metadata>
<g transform="translate(0.000000,720.000000) scale(0.100000,-0.100000)"
fill="#000000" stroke="none">
<path d="M1605 6184 c-170 -30 -296 -89 -401 -186 -141 -132 -210 -299 -229
-554 l-7 -91 72 -7 c214 -21 357 -125 411 -297 13 -41 23 -115 29 -204 10
-159 31 -238 81 -316 58 -92 162 -155 293 -180 65 -12 2587 -12 2652 0 129 25
233 88 293 177 50 75 71 161 81 319 12 203 46 293 143 382 75 69 166 106 297
119 l70 7 0 36 c0 65 -20 204 -41 281 -31 115 -85 215 -157 292 -80 85 -154
134 -262 175 -175 65 -108 63 -1755 62 -1234 -1 -1504 -3 -1570 -15z"/>
<path d="M880 5183 c-191 -32 -330 -169 -384 -378 -32 -124 -38 -294 -33 -850
4 -415 9 -565 21 -649 31 -219 82 -371 160 -480 82 -116 179 -168 322 -174
162 -7 261 40 319 153 l30 59 0 1045 c0 1002 -1 1048 -19 1095 -22 58 -76 121
-125 145 -68 35 -198 50 -291 34z"/>
<path d="M5265 5177 c-98 -26 -157 -74 -197 -162 l-23 -50 -3 -1025 c-2 -1002
-2 -1026 18 -1091 38 -127 129 -190 286 -197 331 -15 505 243 544 809 13 188
13 1066 0 1189 -19 181 -66 304 -148 393 -90 96 -183 136 -332 143 -59 2 -114
-1 -145 -9z"/>
<path d="M1740 4169 c-177 -29 -271 -161 -257 -364 3 -44 13 -102 23 -130 24
-68 94 -137 165 -161 52 -18 107 -19 1509 -19 1370 0 1458 1 1506 18 69 24
127 76 161 145 26 52 28 67 28 167 0 183 -50 273 -181 326 l-59 24 -1420 1
c-800 1 -1444 -2 -1475 -7z"/>
<path d="M1700 3316 c-86 -24 -148 -72 -183 -141 -25 -51 -40 -151 -34 -230
10 -129 64 -216 164 -266 l48 -24 1465 -3 c1616 -3 1511 -7 1606 59 31 21 52
48 76 96 32 65 33 73 33 183 0 99 -3 122 -23 165 -30 65 -83 118 -146 147
l-51 23 -1455 2 c-1142 1 -1465 -1 -1500 -11z"/>
</g>
</svg>
